<?xml version="1.0" encoding="UTF-8" standalone="no"?>
<!-- Created with Inkscape (http://www.inkscape.org/) -->

<svg
   width="29.04034"
   height="29.032955"
   viewBox="0 0 7.6835902 7.6816359"
   version="1.1"
   id="svg60441"
   inkscape:version="1.1.2 (b8e25be833, 2022-02-05)"
   sodipodi:docname="song-icon.svg"
   xmlns:inkscape="http://www.inkscape.org/namespaces/inkscape"
   xmlns:sodipodi="http://sodipodi.sourceforge.net/DTD/sodipodi-0.dtd"
   xmlns="http://www.w3.org/2000/svg"
   xmlns:svg="http://www.w3.org/2000/svg">
  <sodipodi:namedview
     id="namedview60443"
     pagecolor="#ff0000"
     bordercolor="#666666"
     borderopacity="1.0"
     inkscape:pageshadow="2"
     inkscape:pageopacity="0"
     inkscape:pagecheckerboard="0"
     inkscape:document-units="mm"
     showgrid="false"
     fit-margin-top="0"
     fit-margin-left="0"
     fit-margin-right="0"
     fit-margin-bottom="0"
     units="px"
     inkscape:zoom="10.461847"
     inkscape:cx="8.3637238"
     inkscape:cy="19.881766"
     inkscape:window-width="1366"
     inkscape:window-height="705"
     inkscape:window-x="-8"
     inkscape:window-y="-8"
     inkscape:window-maximized="1"
     inkscape:current-layer="layer1" />
  <defs
     id="defs60438" />
  <g
     inkscape:label="Layer 1"
     inkscape:groupmode="layer"
     id="layer1"
     transform="translate(-102.21758,-92.532594)">
    <path
       id="path51155-0-6-6-7"
       style="color:#000000;fill:#ffffff;-inkscape-stroke:none"
       d="m 212.27452,227.50482 c -1.20796,1.2e-4 -2.19335,0.97568 -2.20508,2.18359 l 0.20899,0.002 c 0.0106,-1.09658 0.89946,-1.9784 1.99609,-1.97851 z m 0,-0.5 c -1.48435,1.4e-4 -2.69457,1.19931 -2.70898,2.68359 l 0.20898,0.002 c 0.0133,-1.37295 1.12699,-2.47642 2.5,-2.47656 z m 0,-0.57032 c -1.80068,1.8e-4 -3.26767,1.45332 -3.28515,3.25391 l 0.20703,0.002 c 0.0164,-1.68926 1.38878,-3.04866 3.07812,-3.04883 z m -0.004,-0.55078 c -2.12021,0 -3.8418,1.72159 -3.8418,3.8418 0,2.12021 1.72159,3.83984 3.8418,3.83984 2.1202,0 3.84179,-1.71963 3.84179,-3.83984 0,-2.12021 -1.72159,-3.8418 -3.84179,-3.8418 z m 0,0.20703 c 2.00815,0 3.63476,1.62661 3.63476,3.63477 0,2.00816 -1.62661,3.63281 -3.63476,3.63281 -2.00816,0 -3.63282,-1.62465 -3.63282,-3.63281 0,-2.00816 1.62466,-3.63477 3.63282,-3.63477 z m -0.002,3.10517 c 0.29104,0 0.52917,0.23812 0.52917,0.52917 0,0.29104 -0.23813,0.52916 -0.52917,0.52916 -0.29104,0 -0.52917,-0.23812 -0.52917,-0.52916 0,-0.29105 0.23813,-0.52917 0.52917,-0.52917 m 0,-0.52917 c -0.58473,0 -1.05833,0.47361 -1.05833,1.05834 0,0.58473 0.4736,1.05833 1.05833,1.05833 0.58473,0 1.05833,-0.4736 1.05833,-1.05833 0,-0.58473 -0.4736,-1.05834 -1.05833,-1.05834 z m 2.64435,-2.27747 0.001,1.21914 c -0.0682,-0.0393 -0.14676,-0.0636 -0.23112,-0.0636 -0.25654,0 -0.46339,0.20685 -0.46339,0.46224 0,0.25538 0.20685,0.46223 0.46339,0.46223 0.25654,0 0.46108,-0.20685 0.46108,-0.46223 v -1.15559 h 0.46224 v -0.46223 z m -0.22997,1.84894 c -0.12711,0 -0.23111,-0.10401 -0.23111,-0.23112 0,-0.12712 0.104,-0.23112 0.23111,-0.23112 0.12712,0 0.23112,0.104 0.23112,0.23112 0,0.12711 -0.104,0.23112 -0.23112,0.23112 z" />
    <path
       id="path51155-0-8"
       style="color:#000000;fill:#ffffff;-inkscape-stroke:none"
       d="m 106.05938,92.532594 c -2.12021,0 -3.8418,1.71964 -3.8418,3.83984 0,2.12021 1.72159,3.841796 3.8418,3.841796 2.1202,0 3.84179,-1.721586 3.84179,-3.841796 0,-2.1202 -1.72159,-3.83984 -3.84179,-3.83984 z m 0,0.20703 c 2.00815,0 3.63281,1.62466 3.63281,3.63281 0,2.00816 -1.62466,3.634766 -3.63281,3.634766 -2.00816,0 -3.63477,-1.626606 -3.63477,-3.634766 0,-2.00815 1.62661,-3.63281 3.63477,-3.63281 z m -0.76068,2.59333 0.001,1.21915 c -0.0682,-0.0393 -0.14676,-0.0636 -0.23112,-0.0636 -0.25654,0 -0.46339,0.20685 -0.46339,0.46224 0,0.25538 0.20685,0.46223 0.46339,0.46223 0.25654,0 0.46108,-0.20685 0.46108,-0.46223 v -1.15559 h 1.52058 l -0.0133,-0.46224 z m -0.22996,1.84895 c -0.12711,0 -0.23112,-0.10401 -0.23112,-0.23112 0,-0.12712 0.10401,-0.23112 0.23112,-0.23112 0.12712,0 0.23112,0.104 0.23112,0.23112 0,0.12711 -0.104,0.23112 -0.23112,0.23112 z m 1.75054,-1.84895 10e-4,1.21915 c -0.0682,-0.0393 -0.14676,-0.0636 -0.23112,-0.0636 -0.25654,0 -0.46339,0.20685 -0.46339,0.46224 0,0.25538 0.20685,0.46223 0.46339,0.46223 0.25654,0 0.46108,-0.20685 0.46108,-0.46223 v -1.15559 0 l -0.0669,-0.46224 z m -0.22996,1.84895 c -0.12711,0 -0.23112,-0.10401 -0.23112,-0.23112 0,-0.12712 0.10401,-0.23112 0.23112,-0.23112 0.12712,0 0.23112,0.104 0.23112,0.23112 0,0.12711 -0.104,0.23112 -0.23112,0.23112 z" />
  </g>
</svg>
